<?xml version="1.0" encoding="iso-8859-1"?>
<!-- Generator: Adobe Illustrator 19.0.0, SVG Export Plug-In . SVG Version: 6.00 Build 0)  -->
<svg width="24px" height="24px" version="1.1" id="Layer_1" xmlns="http://www.w3.org/2000/svg" xmlns:xlink="http://www.w3.org/1999/xlink" x="0px" y="0px"
	 viewBox="0 0 512 512" style="enable-background:new 0 0 512 512;" xml:space="preserve">
<g>
	<g>
		<g>
			<path style="fill:#010101;" d="M490.259,443.918H445.69V229.78h43.482c11.958,0,21.741-9.783,21.741-20.654v-88.051
				c0-9.783-6.522-17.393-15.219-20.654L257.631,25.415c-4.348-1.087-8.696-1.087-13.045,0L14.132,100.422
				C5.435,103.683,0,112.379,0,121.075v88.051c0,11.958,9.783,21.741,21.741,21.741h43.482v213.051H21.741
				C9.783,443.918,0,453.702,0,465.659S9.783,487.4,21.741,487.4h467.431c11.958,0,22.828-9.783,22.828-21.741
				S502.217,443.918,490.259,443.918z M108.705,230.867h47.83c11.958,0,21.741-9.783,21.741-21.741s-9.783-21.741-21.741-21.741
				H87.39c-0.142-0.003-0.283-0.011-0.426-0.011s-0.284,0.008-0.426,0.011H42.395v-51.091L250.021,67.81l217.41,68.484v50.004
				H356.552c-11.958,0-21.741,9.783-21.741,21.741s9.783,21.741,21.741,21.741h45.656v214.138H108.705V230.867z"/>
			<path style="fill:#010101;" d="M309.809,258.033c-4.348-5.435-11.958-9.783-19.567-13.045c-3.261-2.174-10.87-4.348-20.654-6.522
				v-58.701c4.348,2.174,7.609,3.261,9.783,6.522c3.261,3.261,6.522,9.784,7.609,18.48l1.087,5.435l35.873-5.435l-1.087-5.435
				c-2.174-16.306-8.696-29.35-20.654-39.134c-7.609-6.522-18.48-10.87-31.524-13.045v-11.958h-25.002v11.958
				c-15.219,2.174-27.176,6.522-34.786,14.132c-13.045,11.958-19.567,27.176-19.567,45.656c0,10.87,2.174,19.567,6.522,28.263
				c4.348,7.609,10.87,15.219,19.567,19.567c8.696,5.435,18.48,8.696,27.176,10.87v66.31c-5.435-2.174-10.87-5.435-15.219-10.87
				c-4.348-5.435-6.522-14.132-8.696-26.089l-1.087-5.435l-34.786,6.522v4.348c1.087,13.045,5.435,23.915,10.87,33.698
				c6.522,9.783,13.045,16.306,21.741,20.654c6.522,3.261,15.219,5.435,26.089,7.609v25.002h25.002v-22.828
				c16.306-2.174,29.35-8.696,40.221-19.567c11.958-11.958,17.393-27.176,17.393-45.656c0-7.609-1.087-15.219-4.348-22.828
				C319.592,269.99,315.244,263.468,309.809,258.033z M223.932,203.68c0-7.609,2.174-13.045,6.522-18.48
				c3.261-3.261,7.609-5.435,13.045-7.609c0,0,0,52.189,0,52.178c-6.522-2.174-10.87-5.435-14.132-8.696
				C226.106,216.725,223.932,210.203,223.932,203.68z M282.633,323.267c-4.348,4.348-8.696,6.522-14.132,8.696v-59.788
				c9.783,3.25,14.132,7.609,16.306,10.87c3.261,4.348,5.435,9.783,5.435,17.393C290.242,310.222,288.068,316.744,282.633,323.267z"
				/>
		</g>
	</g>
</g>
<g>
</g>
<g>
</g>
<g>
</g>
<g>
</g>
<g>
</g>
<g>
</g>
<g>
</g>
<g>
</g>
<g>
</g>
<g>
</g>
<g>
</g>
<g>
</g>
<g>
</g>
<g>
</g>
<g>
</g>
</svg>
